<?xml version="1.0" standalone="no"?>
<!DOCTYPE svg PUBLIC "-//W3C//DTD SVG 20010904//EN"
 "http://www.w3.org/TR/2001/REC-SVG-20010904/DTD/svg10.dtd">
<svg version="1.0" xmlns="http://www.w3.org/2000/svg"
 width="250pt" height="250pt" viewBox="0 0 250 250"
 preserveAspectRatio="xMidYMid meet">
<g transform="translate(0,250) scale(0.1,-0.1)"
fill="#000" stroke="none">
<path d="M2396 2484 c-9 -22 -8 -26 5 -18 8 4 8 0 0 -15 -7 -11 -17 -21 -24
-21 -7 -1 -5 -6 5 -14 13 -10 15 -15 6 -24 -9 -9 -9 -12 2 -12 7 0 10 -3 7 -6
-3 -4 -2 -16 4 -27 8 -14 8 -18 0 -13 -7 5 -11 -1 -11 -14 0 -12 4 -19 9 -16
5 3 3 -25 -4 -62 -11 -58 -11 -69 2 -84 14 -16 14 -18 -8 -27 -16 -6 -18 -10
-8 -10 9 -1 20 -8 23 -17 9 -23 7 -36 -3 -30 -5 4 -7 -13 -5 -36 2 -24 1 -37
-2 -30 -8 17 -34 -4 -33 -27 0 -10 2 -11 6 -3 2 6 11 12 19 12 9 0 12 -5 8
-12 -5 -7 -2 -9 8 -5 14 5 15 1 8 -23 -5 -16 -11 -34 -14 -39 -4 -5 -2 -12 4
-16 5 -3 10 -14 10 -24 0 -23 -38 -63 -52 -55 -8 5 -9 1 -4 -12 4 -10 9 -28
11 -39 1 -11 10 -33 19 -50 21 -40 20 -45 -10 -45 -14 0 -23 4 -19 10 3 6 2
10 -4 10 -5 0 -8 -14 -6 -32 3 -21 -2 -36 -13 -46 -9 -7 -12 -11 -7 -9 17 9
11 -49 -7 -67 -16 -16 -22 -14 -19 7 1 4 -10 12 -25 17 -14 6 -23 14 -19 19 3
5 1 12 -5 16 -13 8 -13 -11 0 -35 6 -11 17 -17 25 -14 20 8 19 -1 -1 -21 -14
-13 -15 -21 -5 -42 9 -20 9 -28 0 -33 -8 -6 -8 -9 2 -13 8 -3 4 -6 -9 -6 -13
-1 -22 4 -21 12 5 40 -2 55 -26 55 -15 0 -24 -5 -22 -12 5 -14 -22 -35 -46
-36 -10 0 -22 10 -27 23 -5 12 -9 16 -9 10 -1 -22 -19 -14 -25 11 -4 15 -15
25 -30 28 -16 3 -23 1 -19 -8 2 -6 0 -15 -6 -19 -7 -3 -11 3 -11 15 0 16 -5
20 -15 16 -21 -8 -19 0 6 23 12 11 19 25 16 33 -4 9 -6 7 -6 -4 -1 -20 -16
-24 -26 -8 -3 6 -17 10 -30 10 -18 0 -23 -4 -19 -15 4 -8 9 -13 14 -10 8 5 35
-45 31 -59 -1 -4 6 -15 16 -23 10 -8 12 -11 4 -7 -11 5 -13 3 -8 -9 3 -9 2
-19 -3 -22 -6 -4 -10 3 -10 14 0 12 -5 21 -11 21 -5 0 -9 -8 -8 -17 1 -10 0
-52 -2 -93 -2 -75 -2 -74 -8 28 -6 99 -7 105 -35 127 -28 22 -29 26 -37 150
-11 173 -23 222 -81 336 -51 99 -120 180 -215 249 -23 17 -45 40 -48 51 -9 28
-40 44 -120 62 -111 25 -145 28 -230 18 -77 -9 -81 -11 -120 -54 -22 -25 -60
-71 -85 -103 -25 -33 -66 -79 -91 -104 -111 -109 -153 -230 -164 -475 -2 -60
-9 -128 -14 -150 -6 -22 -11 -58 -11 -80 0 -22 -7 -62 -15 -89 -19 -64 -19
-164 0 -210 9 -21 20 -92 25 -161 5 -77 14 -134 24 -153 9 -17 16 -33 16 -36
0 -4 -166 -106 -174 -106 -2 0 -64 -29 -138 -64 -134 -64 -157 -72 -236 -81
-23 -3 -75 -22 -115 -42 -39 -21 -77 -37 -84 -37 -9 1 -12 -56 -13 -217 l-1
-219 1251 0 1250 0 0 269 c0 235 -2 270 -16 275 -8 3 -13 10 -10 15 3 5 -4 7
-16 4 -19 -4 -20 -3 -8 6 12 8 8 10 -16 5 -20 -4 -55 3 -105 21 -41 14 -108
37 -149 50 -41 13 -96 32 -122 44 -26 11 -67 25 -90 31 -111 28 -141 57 -99
97 25 24 41 57 42 85 1 18 3 15 11 -12 l11 -35 11 27 c11 31 14 32 35 19 9 -6
16 -32 19 -70 5 -65 2 -63 72 -65 29 -1 34 -4 32 -20 -3 -17 2 -18 47 -14 27
3 56 1 63 -4 9 -7 6 -8 -9 -5 -15 3 -23 0 -23 -8 0 -13 55 -27 110 -29 19 -1
25 -6 24 -22 0 -19 5 -22 42 -20 34 1 40 -2 31 -12 -8 -11 -7 -13 4 -12 29 5
70 0 66 -8 -3 -4 1 -13 9 -20 12 -11 14 -10 15 5 1 10 5 2 9 -17 4 -19 8 405
9 943 l1 977 -49 0 c-35 0 -51 -4 -55 -16z m-985 -163 c125 -43 244 -136 308
-241 37 -62 22 -55 -18 8 -57 88 -118 145 -148 137 -17 -4 -26 0 -31 12 -7 18
-42 28 -42 12 0 -12 32 -49 43 -49 15 0 34 -25 29 -38 -2 -6 3 -12 12 -12 23
0 20 -15 -8 -33 -24 -16 -42 -17 -64 -3 -7 4 -16 5 -20 1 -4 -4 -2 -10 5 -12
6 -2 21 -13 34 -24 27 -23 30 -24 22 -2 -5 12 -2 15 10 10 8 -3 18 -3 20 1 2
4 2 0 -1 -8 -6 -23 -10 -44 -11 -59 -1 -8 -7 -11 -17 -7 -9 3 -12 2 -9 -5 4
-6 -1 -16 -11 -24 -17 -12 -17 -13 -2 -11 10 1 21 5 24 9 4 4 13 2 21 -4 9 -8
13 -8 13 -1 0 6 9 14 20 17 11 4 18 12 14 18 -3 7 1 3 10 -8 8 -11 20 -25 25
-32 7 -8 6 -13 -4 -17 -10 -4 -13 -17 -9 -53 4 -37 3 -45 -6 -33 -10 13 -11
13 -7 0 2 -8 11 -15 20 -15 9 0 24 -9 34 -19 17 -18 17 -19 0 -12 -10 3 -49 7
-85 7 -37 1 -59 3 -49 6 9 2 17 9 17 14 0 6 7 17 15 25 17 17 9 47 -11 40 -8
-3 -14 -1 -14 4 0 6 6 10 12 10 7 0 3 7 -8 14 -12 9 -31 12 -43 9 -15 -4 -19
-8 -11 -13 7 -4 -2 -10 -21 -14 -22 -4 -37 -1 -49 9 -14 13 -17 13 -17 0 0 -8
3 -12 6 -10 4 2 15 -4 26 -12 20 -15 20 -15 -2 -9 -62 16 -60 15 -58 54 2 20
1 32 -2 25 -5 -13 -34 -6 -45 11 -8 12 -70 18 -63 5 4 -5 12 -9 20 -9 14 0 31
-36 27 -57 -2 -7 5 -13 14 -13 10 0 15 -3 11 -6 -7 -7 -76 8 -124 27 -15 6
-58 12 -95 14 l-67 2 -14 -43 c-8 -24 -10 -44 -5 -44 5 0 7 -4 3 -9 -3 -6 2
-14 11 -19 12 -7 1 -12 -45 -21 -48 -9 -69 -20 -96 -47 -19 -19 -36 -42 -36
-52 -1 -9 -4 -3 -8 13 -4 17 -2 33 4 37 7 5 7 8 -1 8 -6 0 -11 7 -11 15 0 8 4
12 9 9 7 -4 10 6 10 36 1 3 -2 19 -5 36 -4 22 -2 31 8 31 8 0 12 -4 9 -9 -3
-4 1 -8 9 -8 8 0 15 10 16 23 4 67 8 86 21 102 14 17 14 17 -8 6 -22 -12 -23
-11 -12 8 13 25 14 25 34 5 20 -20 20 -34 1 -34 -8 0 -15 -9 -15 -20 0 -17 5
-15 37 15 20 19 35 36 32 38 -2 2 -13 9 -24 15 -18 10 -18 11 9 12 28 0 29 1
10 15 -23 17 -15 19 21 5 23 -9 26 -15 21 -38 l-6 -27 16 29 c13 24 14 30 2
38 -10 8 -9 9 4 5 18 -6 33 29 17 39 -5 3 -9 2 -8 -3 4 -22 -3 -24 -23 -7 -22
19 -23 19 -8 -1 14 -19 14 -19 -6 -2 -11 9 -26 17 -32 17 -7 0 -12 5 -12 12 0
8 -7 6 -17 -5 -16 -16 -16 -19 -3 -28 12 -8 12 -9 -4 -7 -23 3 -70 -60 -81
-107 -7 -29 -7 -29 9 -10 16 20 17 20 14 -5 -2 -14 -9 -24 -15 -23 -6 1 -18
-16 -27 -38 -18 -44 -21 -62 -6 -39 7 11 10 7 10 -17 0 -17 -4 -35 -10 -38 -6
-3 -10 4 -10 17 0 18 -2 20 -10 8 -15 -24 -12 2 10 84 26 94 43 128 94 190 85
103 131 148 166 163 134 58 216 67 311 34z m-88 -551 c9 0 17 -4 17 -10 0 -5
-8 -10 -17 -10 -14 0 -15 -2 -4 -9 8 -5 12 -18 8 -30 -2 -11 -1 -48 5 -83 5
-35 10 -84 11 -110 l3 -48 -50 0 c-55 0 -106 -26 -123 -63 -11 -24 -49 -42
-57 -28 -3 4 -2 26 1 50 5 35 9 42 24 38 24 -6 69 39 69 69 0 13 6 24 13 24 8
0 13 25 15 82 2 46 8 91 14 102 7 12 7 16 0 12 -6 -3 -13 -2 -16 3 -8 12 22
21 49 15 11 -2 28 -4 38 -4z m-143 -170 c-6 -11 -14 -20 -19 -20 -5 0 -26 -16
-47 -35 -31 -29 -34 -35 -18 -36 18 0 18 -1 -1 -8 -14 -6 -21 -20 -25 -51 l-5
-43 -65 -21 c-36 -12 -81 -32 -100 -45 -22 -15 -29 -17 -18 -6 16 17 16 21 1
49 l-16 30 -17 -22 c-17 -20 -18 -21 -23 -2 -3 12 0 17 8 14 7 -3 13 1 12 8
-2 64 -3 64 91 77 77 11 95 18 155 59 37 25 73 52 79 59 16 19 20 16 8 -7z
m338 -69 c24 -12 76 -26 117 -30 40 -5 78 -11 83 -15 14 -9 3 -43 -16 -51 -14
-5 -15 -4 -4 6 6 7 12 18 12 24 -1 5 -9 0 -18 -11 -33 -40 -68 -40 -132 -3 -8
5 -24 13 -35 18 -27 12 -60 49 -51 58 3 4 -8 23 -26 42 -31 34 -31 35 -3 10
17 -15 49 -37 73 -48z m-93 -415 c36 -15 44 -36 23 -54 -15 -12 -286 -11 -305
1 -27 17 -14 45 25 55 59 16 217 14 257 -2z m373 -480 c-6 -87 -33 -150 -103
-238 -78 -100 -179 -147 -330 -155 -103 -6 -219 9 -280 36 -48 21 -177 139
-210 191 -28 44 -55 126 -54 159 1 19 4 14 9 -14 17 -81 44 -128 36 -61 -3 21
0 37 7 40 8 3 2 12 -13 25 -14 11 -20 21 -15 20 20 0 42 -24 49 -54 4 -16 16
-39 26 -50 11 -11 25 -38 32 -60 7 -22 19 -40 26 -40 8 0 19 -9 25 -21 37 -66
61 -82 157 -100 79 -15 103 -16 175 -6 45 7 107 21 138 31 30 11 58 17 60 14
23 -22 114 85 132 154 3 15 32 51 63 80 31 29 51 52 45 53 -7 0 -13 -5 -13
-12 0 -6 -2 -9 -5 -6 -10 9 17 68 28 61 6 -4 8 0 4 10 -4 10 -2 17 5 17 7 0 9
-24 6 -74z"/>
<path d="M524 835 c7 -18 -10 -20 -18 -2 -3 6 -3 0 1 -16 5 -26 4 -27 -19 -18
-13 5 -31 5 -39 1 -11 -6 -15 -4 -15 10 0 11 5 16 15 12 9 -3 12 -1 7 6 -10
16 -83 15 -89 0 -3 -10 -7 -10 -20 1 -13 10 -24 11 -47 2 -18 -6 -28 -6 -25
-1 4 6 -3 10 -13 10 -11 0 -22 -9 -25 -20 -3 -12 -14 -20 -27 -20 -11 0 -19
-4 -16 -9 7 -11 -24 -24 -33 -15 -3 4 0 9 7 11 17 6 15 30 -2 36 -10 4 -13 1
-9 -9 3 -7 2 -14 -1 -14 -4 0 -11 10 -16 23 -8 21 -9 21 -9 -5 -1 -16 4 -28 9
-28 24 0 7 -19 -23 -26 -28 -6 -29 -8 -12 -15 14 -5 16 -8 5 -9 -8 -2 -18 -2
-22 -1 -5 0 -8 -6 -8 -14 0 -8 -5 -15 -11 -15 -7 0 -9 -10 -7 -24 4 -18 -1
-28 -19 -37 -12 -7 -24 -19 -25 -28 -1 -9 -5 29 -8 84 -6 99 -6 99 -7 -40 0
-85 3 -124 7 -100 4 22 8 31 9 20 3 -39 13 -44 66 -33 111 22 247 71 370 132
119 60 158 87 72 51 -48 -20 -50 -19 -23 10 24 26 43 34 30 13 -5 -7 -3 -8 5
-4 9 6 9 12 -3 25 -10 11 -12 21 -6 31 13 20 12 40 -1 40 -6 0 -9 -7 -5 -15z"/>
</g>
</svg>
